# xmcd CD database file
#
# Track frame offsets:
#	150
#	17957
#	34841
#	57321
#	66283
#	83117
#	103657
#	120626
#	144820
#	163776
#	186730
#
# Disc length: 2787 seconds
#
# Revision: 0
# Processed by: cddbd v1.5PL3 Copyright (c) Steve Scherf et al.
# Submitted via: CDex 1.51
#
DISCID=9b0ae10b
DTITLE=S.E.N.S. - Heijitsu no Kyujitsu (Weekday Holiday)
DYEAR=1996
DGENRE=New Age
TTITLE0=Hito to Toki to Kaze no Naka e (Winds a Time) ~ Epilogue
TTITLE1=Flowers
TTITLE2=Daydreaming
TTITLE3=Tears
TTITLE4=Peace of Mind
TTITLE5=Fine
TTITLE6=Brightness
TTITLE7=Deatta Koro no Kimi de Ite (Be As You Were When We Met)
TTITLE8=Rainbow on the Moon
TTITLE9=Yoko (Sunshine)
TTITLE10=Heaven's Song
EXTD=YEAR: 1996
EXTT0=
EXTT1=
EXTT2=
EXTT3=
EXTT4=
EXTT5=
EXTT6=
EXTT7=
EXTT8=
EXTT9=
EXTT10=
PLAYORDER=
